<svg xmlns="http://www.w3.org/2000/svg" viewBox="0 0 500 145.53"><defs><style>.cls-1,.cls-2{fill:#374c83;}.cls-2{font-size:59.09px;font-family:DINAlternate-Bold, DIN Alternate;font-weight:700;letter-spacing:0.01em;}.cls-3{letter-spacing:0.04em;}.cls-4{letter-spacing:0.07em;}</style></defs><title>LOCA</title><g id="TEXT"><path class="cls-1" d="M346.4,127.21H323.5a.62.62,0,0,1-.44-1.05l22.9-22.9a.62.62,0,0,1,1.05.44v22.9A.62.62,0,0,1,346.4,127.21Z"/><path class="cls-1" d="M312.47,126.74l15.57-15a.37.37,0,0,0-.26-.64H242a.58.58,0,0,0-.58.58v15a.57.57,0,0,0,.57.57h69.28A1.67,1.67,0,0,0,312.47,126.74Z"/><path class="cls-1" d="M346.56,94.28l-14.89,15.1a.37.37,0,0,1-.64-.25V64.86a.56.56,0,0,1,.57-.55h14.86a.56.56,0,0,1,.56.55v28.3A1.6,1.6,0,0,1,346.56,94.28Z"/><path class="cls-1" d="M141.47,18.52h22.9a.62.62,0,0,1,.44,1.05l-22.9,22.9a.62.62,0,0,1-1.05-.44V19.13A.62.62,0,0,1,141.47,18.52Z"/><path class="cls-1" d="M175.4,19,159.83,34a.37.37,0,0,0,.26.64h85.74a.58.58,0,0,0,.58-.58v-15a.57.57,0,0,0-.57-.57H176.56A1.67,1.67,0,0,0,175.4,19Z"/><path class="cls-1" d="M141.32,51.45l14.89-15.1a.37.37,0,0,1,.64.25V80.86a.56.56,0,0,1-.57.55H141.42a.56.56,0,0,1-.56-.55V52.57A1.6,1.6,0,0,1,141.32,51.45Z"/><text class="cls-2" transform="translate(168.82 94.66)">L<tspan class="cls-3" x="33.63" y="0">O</tspan><tspan class="cls-4" x="72.1" y="0">CA</tspan></text></g></svg>