<?xml version="1.0" encoding="iso-8859-1"?>
<!-- Generator: Adobe Illustrator 16.0.0, SVG Export Plug-In . SVG Version: 6.00 Build 0)  -->
<!DOCTYPE svg PUBLIC "-//W3C//DTD SVG 1.1//EN" "https://www.w3.org/Graphics/SVG/1.1/DTD/svg11.dtd">
<svg xmlns="https://www.w3.org/2000/svg" xmlns:xlink="https://www.w3.org/1999/xlink" version="1.1" id="Capa_1" x="0px" y="0px" width="512px" height="512px" viewBox="0 0 688.412 688.412" style="enable-background:new 0 0 688.412 688.412;" xml:space="preserve">
<g>
	<g id="_x34_4">
		<g>
			<path d="M638.122,600.685l-135.687-166.8c33.838-42.681,51.521-101.324,50.996-177.938     C552.236,84.176,465.777-1.136,294.054,0.011C122.283,1.254,37.019,87.761,38.213,259.58     c1.195,171.82,87.702,257.036,259.425,255.793c45.118-0.287,83.878-6.883,117.047-18.927l139.988,172.105     c18.735,23.085,52.621,26.526,75.658,7.791C653.416,657.512,656.905,623.674,638.122,600.685z M295.822,419.594     c-106.963,0-160.444-53.576-160.444-160.54c0-107.059,53.481-160.492,160.444-160.492s160.444,53.433,160.444,160.492     C456.314,366.018,402.785,419.594,295.822,419.594z" fill="#FFFFFF"/>
		</g>
	</g>
</g>
<g>
</g>
<g>
</g>
<g>
</g>
<g>
</g>
<g>
</g>
<g>
</g>
<g>
</g>
<g>
</g>
<g>
</g>
<g>
</g>
<g>
</g>
<g>
</g>
<g>
</g>
<g>
</g>
<g>
</g>
</svg>
